<svg width="65" height="56" fill="none" xmlns="http://www.w3.org/2000/svg"><g clip-path="url(#clip0)"><path fill-rule="evenodd" clip-rule="evenodd" d="M23.075 45.555c-.1.49-.1.785-.05.834-5.63.245-8.747-.883-9.4-3.335-.503-1.912.502-4.56 2.965-7.944-.402.245-.754.442-1.156.638-1.257.588-2.513.784-3.67.637-1.156-.147-2.212-.686-3.116-1.52-.704-.637-1.358-1.52-1.86-2.599-.252-.147-.453-.294-.704-.441.854 5.64 3.569 10.69 7.49 14.515 4.826 4.707 11.462 7.6 18.801 7.6 7.34 0 13.976-2.893 18.802-7.6 3.92-3.825 6.585-8.778 7.49-14.319-.15.098-.251.147-.402.245a8.745 8.745 0 01-1.86 2.6c-.905.833-1.96 1.372-3.117 1.52-1.156.146-2.363-.05-3.67-.638a13.535 13.535 0 01-1.156-.638c2.463 3.384 3.469 6.032 2.966 7.944-.905 3.384-6.787 3.629-9.652 3.335 0 .49-.1.883-.402 1.079-1.156.735-4.273 2.255-8.747 2.304-3.921.05-7.44-1.324-9.3-2.746-.201-.147-.302-.343-.302-.637 2.664-.294 4.575-1.324 5.73-3.139 1.057-1.667 1.409-3.922 1.157-6.865-.05-.54-.1-.588.05-1.078l1.81-7.65c.15-.736.05-1.275-.603-1.913a77.372 77.372 0 00-5.228-4.266c-.402 0-.805 0-1.207.098 1.86 1.373 3.67 2.893 5.58 4.61.553.441.604.931.503 1.618l-1.71 7.306c-.1.442-.1.834-.1 1.373.1 2.109.1 4.56-1.005 6.375-1.006 1.471-2.665 2.403-4.927 2.697zm2.866-26.774c-.05.343.15.736.502.834.302.098.604 0 .855-.098.553-.197 1.307-.49 1.91-.589.201-.049.352-.049.503.05.302.195.603 1.078.453 1.372-.503.883-1.61 1.226-2.414 1.226a23.597 23.597 0 00-1.86-.098c-2.463-1.912-4.876-3.53-7.289-4.904a48.98 48.98 0 00-7.892-3.58 25.996 25.996 0 012.865-3.334c4.826-4.707 11.462-7.6 18.801-7.6 7.34 0 13.976 2.893 18.802 7.6a26.817 26.817 0 012.915 3.384c-2.614.882-5.127 2.06-7.691 3.481-2.262 1.275-4.575 2.845-6.938 4.61-.2 0-.452 0-.703.049-1.157.147-2.262.098-3.62-1.422-.703-.785-1.357-2.452-.754-3.678.754.588 1.609.785 2.262.147.553-.54 1.207-.49 1.508-1.667.151-2.795-1.91-3.58-2.815-3.138.1.196.05 1.422-.402 1.716.352-1.079-.15-2.942-.905-3.825-2.06-2.305-7.038-1.57-9.048 1.373-.151.343 0 .294 0 .49 0 .05 0 .098-.05.197-.202.539-.302 1.225 0 2.108.15.294.25.54.05.834l-.201.196s.301.049.402.049c-.05.294-.151.54-.252.834l-.15.294c-.202.294-.553.588-.453.784 0 .05.15.148.251.197.101.049.202.098.252.098.251.147.502.294.352.539-.05.098-.1.098-.1.196.05.245.351.147.552.245-.1.147-.201.197-.201.344 0 .098.05.147.15.196.202.098.353.049.353.49zm13.17 20.743l.05-.05c.252-.539 1.157-1.618 1.56-3.138.854-3.187 1.658-6.669 2.161-9.905.201-1.324 0-2.697-.453-3.776-.351-.785-.955-1.226-1.658-1.373a62.476 62.476 0 016.133-4.021c4.222-2.403 8.445-4.021 13.02-4.855.1 0 .2-.049.301-.049.956-.147 1.76.098 2.363.638s1.056 1.422 1.307 2.5c.05.197.1.442.15.638.504 3.139.051 6.375-1.055 9.17-1.156 2.844-2.966 5.198-5.178 6.375l-.1.049-.05.098c-.503 1.03-1.056 1.863-1.76 2.452-.804.735-1.71 1.177-2.664 1.324-1.006.147-2.061-.05-3.167-.589-1.157-.54-2.413-1.422-3.67-2.746l-.352-.343c-.1-.098-.201-.245-.352-.392-.1-.098-.201-.147-.302-.147-.1 0-.2 0-.301.049a.46.46 0 00-.201.49c.05.098.1.196.2.294.202.245.403.49.604.687 3.871 4.511 5.58 7.846 5.027 9.954-.603 2.305-5.178 3.384-8.948 2.697 0 0 .05.196.05.392.05.246.05.49.05.49-2.664-.293-4.323-1.323-5.479-3.137-1.005-1.619-1.407-3.874-1.156-6.67.05-.686.1-.784-.05-1.47l-1.76-7.454c-.201-.883.1-1.471.553-1.864a136.391 136.391 0 015.68-4.658c.554-.05 1.207.098 1.207.147a122.19 122.19 0 00-6.133 5.002c-.553.294-.754.637-.553 1.324l1.76 7.404c.1.54.1 1.03.05 1.471-.201 2.697.1 4.757 1.056 6.228.955 1.52 2.664 2.256 4.624 2.697-.452-2.157-2.11-5.198-2.513-5.884-.05-.098-.1-.147-.15-.245a14.026 14.026 0 00-1.258-1.373l2.614-9.759c.352.05.201.883-.05 1.57-.804 2.5-1.659 6.521-2.111 8.041.2.49.502.785.804 1.471.05.099.1.148.1.246zm-12.869-.54c.05-.098.1-.196.151-.245.302-.637.603-1.03.805-1.52-.453-1.52-1.006-5.394-1.76-7.797-.201-.686-.402-1.52-.05-1.57l2.312 9.563c-.452.392-.905.932-1.206 1.324-.201.294-.352.54-.553.834-.754 1.226-2.514 4.119-2.866 5.982-5.127.245-8.144-.686-8.646-2.697-.553-2.108 1.156-5.443 5.027-9.954l.05-.05c.251-.294.352-.44.603-.686.05-.098.151-.196.151-.294 0-.098 0-.147-.05-.245a.388.388 0 00-.201-.196c-.1-.05-.201-.099-.302-.05-.1 0-.2.05-.302.148-.15.147-.25.245-.351.392-.1.098-.201.245-.352.343-1.257 1.275-2.464 2.207-3.67 2.746a5.864 5.864 0 01-3.167.589c-.955-.147-1.86-.589-2.664-1.324a8.682 8.682 0 01-1.76-2.452l-.05-.098-.1-.05c-2.162-1.176-4.022-3.53-5.179-6.374-1.106-2.844-1.558-6.08-1.055-9.219.05-.196.1-.441.15-.637.252-1.08.704-1.962 1.308-2.501.603-.54 1.357-.785 2.362-.638.1 0 .201.05.302.05 4.524.882 8.747 2.451 13.02 4.854a55.09 55.09 0 016.485 4.315c-.302.098-.553.196-.754.343-2.564 1.766-.302 13.29 1.056 15.104.452.588.754 1.226 1.156 1.814.05.098.05.147.1.196zm29.962-26.578c1.156-.343 2.312-.588 3.468-.833.1 0 .201-.05.352-.05 1.257-.195 2.262.148 3.067.834.754.687 1.256 1.668 1.558 2.893l.151.736c.553 3.285.05 6.669-1.106 9.562-.654 1.667-1.558 3.188-2.664 4.414a27.495 27.495 0 01-8.345 17.849C47.507 52.86 40.318 56 32.375 56c-7.942 0-15.131-3.138-20.309-8.19-4.826-4.707-7.943-11.082-8.345-18.192a15.573 15.573 0 01-2.363-4.07C.202 22.655-.3 19.272.252 15.986c.1-.54.201-1.079.403-1.57a5.425 5.425 0 011.307-2.059c.754-.686 1.81-1.03 3.066-.833.1 0 .251.049.352.049 1.106.196 2.162.441 3.268.784a25.247 25.247 0 013.519-4.119C17.244 3.138 24.433 0 32.375 0c7.943 0 15.132 3.138 20.31 8.19a25.943 25.943 0 013.519 4.216z" fill="#fff"/></g><defs><clipPath id="clip0"><path fill="#fff" d="M0 0h65v56H0z"/></clipPath></defs></svg>