<svg viewBox="0 0 38 38" fill="none" xmlns="http://www.w3.org/2000/svg"><circle cx="19" cy="19" r="19" fill="#EF7239"/><path fill-rule="evenodd" clip-rule="evenodd" d="M27.677 25.595c-.556 1.688-2.733 2.53-4.288 2.39-2.124-.192-4.435-1.319-6.19-2.56-2.579-1.823-4.994-4.645-6.402-7.639-.995-2.115-1.218-4.717.262-6.645.547-.713 1.139-1.093 2.028-1.137 1.233-.06 1.406.645 1.83 1.744.315.822.737 1.661.972 2.513.44 1.59-1.1 1.656-1.294 2.956-.121.82.873 1.918 1.321 2.503a12.126 12.126 0 003.13 2.883c.683.43 1.786 1.207 2.568.779 1.205-.66 1.09-2.692 2.776-2.004.872.355 1.717.867 2.55 1.316 1.287.693 1.227 1.41.736 2.9.368-1.113-.367 1.114 0 0z" fill="#F3F3F3"/></svg>